<svg class="svg-icon"
    style="width: 1em; height: 1em;vertical-align: middle;fill: currentColor;overflow: hidden;"
    viewBox="0 0 1024 1024" version="1.1" xmlns="http://www.w3.org/2000/svg">
    <path
        d="M323.318519 615.348148h362.192592c-8.533333-13.274074-12.325926-27.496296-12.325926-43.614815 0-22.755556 9.481481-43.614815 24.651852-58.785185 15.17037-15.17037 36.02963-24.651852 58.785185-24.651852 22.755556 0 43.614815 9.481481 58.785185 24.651852 15.17037 15.17037 24.651852 36.02963 24.651852 58.785185 0 13.274074-2.844444 24.651852-8.533333 36.02963 26.548148-5.688889 53.096296-15.17037 70.162963-33.185185l-12.325926-83.437037c-56.888889-21.807407-143.17037-30.340741-207.644444-38.874074-42.666667-28.444444-95.762963-52.148148-157.392593-72.05926-72.059259-5.688889-122.311111-8.533333-189.62963 0-31.288889 13.274074-52.148148 30.340741-72.059259 52.148149-38.874074 4.740741-87.22963 20.859259-116.622222 34.133333l-18.014815 100.503704c13.274074 19.911111 30.340741 31.288889 48.355556 40.77037h2.844444c-5.688889-11.377778-8.533333-23.703704-8.533333-36.977778 0-22.755556 9.481481-43.614815 24.651852-58.785185 15.17037-15.17037 36.02963-24.651852 58.785185-24.651852 22.755556 0 43.614815 9.481481 58.785185 24.651852 15.17037 15.17037 24.651852 36.02963 24.651852 58.785185-1.896296 17.066667-6.637037 31.288889-14.222222 44.562963z m559.407407-109.037037c-10.42963 0.948148-20.859259 1.896296-32.237037 3.792593-13.274074-11.377778-27.496296-18.014815-42.666667-20.85926 0-2.844444 0.948148-5.688889 0.948148-8.533333 31.288889 3.792593 56.888889 10.42963 73.955556 25.6z m-738.607407 25.6c3.792593-19.911111 7.585185-38.874074 11.377777-58.785185 9.481481-2.844444 18.962963-6.637037 28.444445-9.481482 1.896296 4.740741 2.844444 9.481481 4.74074 14.222223-18.014815 11.377778-27.496296 31.288889-33.185185 54.044444h-11.377777z m260.74074-78.696296l244.622222 6.637037c1.896296 23.703704 0 47.407407-4.74074 69.214815-3.792593 21.807407-11.377778 42.666667-19.911111 62.577777H419.081481c-17.066667-49.303704-21.807407-81.540741-21.807407-103.348148h42.666667V474.074074H398.222222c1.896296-9.481481 4.740741-16.118519 6.637037-20.859259z m250.311111 6.637037c1.896296 24.651852 0 48.355556-4.74074 71.111111-4.740741 22.755556-11.377778 44.562963-20.85926 65.422222v0.948148H415.288889l-0.948148-1.896296c-31.288889-90.074074-22.755556-127.051852-15.170371-143.17037l-70.162963-1.896297c8.533333-18.962963 18.962963-36.977778 33.185186-54.044444 44.562963-5.688889 97.659259-4.740741 154.548148-0.948148 18.962963 4.740741 142.222222 62.577778 138.429629 64.474074z m-402.962963 37.925926c19.911111 0 38.874074 8.533333 52.148149 21.807407 13.274074 13.274074 21.807407 31.288889 21.807407 52.148148 0 19.911111-8.533333 38.874074-21.807407 52.148148-13.274074 13.274074-31.288889 21.807407-52.148149 21.807408-19.911111 0-38.874074-8.533333-52.148148-21.807408-13.274074-13.274074-21.807407-31.288889-21.807407-52.148148 0-19.911111 8.533333-38.874074 21.807407-52.148148 14.222222-13.274074 32.237037-21.807407 52.148148-21.807407z m503.466667 29.392592c2.844444 0 5.688889 0 8.533333 0.948149l0.948149-8.533334c11.377778 1.896296 21.807407 7.585185 29.392592 15.170371 4.740741 4.740741 7.585185 9.481481 10.42963 15.17037l-8.533334 2.844444c1.896296 4.740741 3.792593 10.42963 3.792593 15.170371l8.533333-1.896297v6.637037c0 13.274074-4.740741 25.6-13.274074 36.02963l-6.637037-6.637037c-3.792593 3.792593-7.585185 7.585185-12.325926 10.42963l5.688889 7.585185c-7.585185 4.740741-17.066667 7.585185-27.496296 7.585185-7.585185 0-14.222222-1.896296-20.859259-4.740741l4.74074-8.533333c-4.740741-1.896296-9.481481-4.740741-13.274074-8.533333l-5.688889 7.585185c-0.948148-0.948148-1.896296-1.896296-2.844444-1.896296-9.481481-9.481481-16.118519-23.703704-16.118519-37.925926 0-2.844444 0-4.740741 0.948149-7.585186l8.533333 1.896297c0.948148-5.688889 1.896296-10.42963 4.740741-15.170371l-8.533334-2.844444c2.844444-5.688889 5.688889-10.42963 10.42963-14.222222 7.585185-7.585185 18.014815-13.274074 29.392593-15.170371l0.948148 8.533334c2.844444-1.896296 5.688889-1.896296 8.533333-1.896297z m0-29.392592c19.911111 0 38.874074 8.533333 52.148148 21.807407 13.274074 13.274074 21.807407 31.288889 21.807408 52.148148 0 19.911111-8.533333 38.874074-21.807408 52.148148-13.274074 13.274074-31.288889 21.807407-52.148148 21.807408-19.911111 0-38.874074-8.533333-52.148148-21.807408-13.274074-13.274074-21.807407-31.288889-21.807407-52.148148 0-19.911111 8.533333-38.874074 21.807407-52.148148 13.274074-13.274074 32.237037-21.807407 52.148148-21.807407z m0 16.118518c16.118519 0 31.288889 6.637037 41.718519 17.066667 10.42963 10.42963 17.066667 25.6 17.066666 41.718518 0 16.118519-6.637037 31.288889-17.066666 41.718519-10.42963 10.42963-25.6 17.066667-41.718519 17.066667-16.118519 0-31.288889-6.637037-41.718518-17.066667-10.42963-10.42963-17.066667-25.6-17.066667-41.718519 0-16.118519 6.637037-31.288889 17.066667-41.718518 10.42963-10.42963 25.6-17.066667 41.718518-17.066667z m-503.466667 13.274074c2.844444 0 5.688889 0 8.533334 0.948149l0.948148-8.533334c11.377778 1.896296 21.807407 7.585185 29.392592 15.170371 4.740741 4.740741 7.585185 9.481481 10.42963 15.17037l-8.533333 2.844444c1.896296 4.740741 3.792593 10.42963 3.792592 15.170371l8.533334-1.896297v6.637037c0 13.274074-4.740741 25.6-13.274074 36.02963l-6.637037-6.637037c-3.792593 3.792593-7.585185 7.585185-12.325926 10.42963l5.688889 7.585185c-7.585185 4.740741-17.066667 7.585185-27.496297 7.585185-7.585185 0-14.222222-1.896296-20.859259-4.740741l4.740741-8.533333c-4.740741-1.896296-9.481481-4.740741-13.274074-8.533333l-5.688889 7.585185c-0.948148-0.948148-1.896296-1.896296-2.844445-1.896296-9.481481-9.481481-16.118519-23.703704-16.118518-37.925926v-7.585186l8.533333 1.896297c0.948148-5.688889 1.896296-10.42963 4.740741-15.170371l-8.533333-2.844444c2.844444-5.688889 5.688889-10.42963 10.429629-14.222222 7.585185-7.585185 18.014815-13.274074 29.392593-15.170371l0.948148 8.533334c4.740741-1.896296 7.585185-1.896296 9.481481-1.896297z m0.948149-13.274074c16.118519 0 31.288889 6.637037 41.718518 17.066667 10.42963 10.42963 17.066667 25.6 17.066667 41.718518 0 16.118519-6.637037 31.288889-17.066667 41.718519-10.42963 10.42963-25.6 17.066667-41.718518 17.066667-16.118519 0-31.288889-6.637037-41.718519-17.066667-10.42963-10.42963-17.066667-25.6-17.066667-41.718519 0-16.118519 6.637037-31.288889 17.066667-41.718518 10.42963-10.42963 24.651852-17.066667 41.718519-17.066667z" />
</svg>